# xmcd
#
# Track frame offsets:
#	150
#	13323
#	31234
#	54668
#	68520
#	85133
#	104722
#	123590
#	136911
#	150207
#	168232
#	184331
#	204345
#
# Disc length: 3576 seconds
#
# Revision: 0
# Processed by: cddbd v1.5PL3 Copyright (c) Steve Scherf et al.
# Submitted via: dBpowerAMP V4.0
#
DISCID=a90df60d
DTITLE=Jack West - Sicide Alley
DYEAR=2002
DGENRE=Country
TTITLE0=Sucide Alley
TTITLE1=In My Time Of Need
TTITLE2=Broken Side Of Town
TTITLE3=You Should Be so Lucky
TTITLE4=Girl In My Heart
TTITLE5=I wasn't Meant To Be Alone
TTITLE6=The Shadow Is Me
TTITLE7=Not Praying For Rain
TTITLE8=All The Love I Had
TTITLE9=Don't Blame It On A Woman
TTITLE10=PBR and Cigarettes
TTITLE11=It's All Up To You 
TTITLE12=Drinking In the Sun
EXTD=
EXTT0=
EXTT1=
EXTT2=
EXTT3=
EXTT4=
EXTT5=
EXTT6=
EXTT7=
EXTT8=
EXTT9=
EXTT10=
EXTT11=
EXTT12=
PLAYORDER=
